<?xml version="1.0" encoding="UTF-8"?>
<svg fill="#ffffff" viewBox="0 0 1440 1440" xmlns="http://www.w3.org/2000/svg">
	<path d="m 1032.5959,482.12793 c 5.657,0 10.24,-4.583 10.24,-10.24 v -83.528 c 0,-5.657 -4.583,-10.24 -10.24,-10.24 H 395.91393 a 10.238,10.238 0 0 0 -10.24,10.24 v 83.528 c 0,5.657 4.583,10.24 10.24,10.24 z m 0,40.96 H 395.91393 c -28.278,0 -51.2,-22.922 -51.2,-51.2 v -83.528 c 0,-28.278 22.922,-51.2 51.2,-51.2 h 636.68197 c 28.278,0 51.2,22.922 51.2,51.2 v 83.528 c 0,28.278 -22.922,51.2 -51.2,51.2 z" />
	<path d="m 1008.1649,506.04393 -58.24497,666.44997 c -0.544,6.246 -6.714,11.9 -12.99,11.9 h -445.348 c -6.276,0 -12.447,-5.654 -12.99,-11.893 l -58.246,-666.45697 c -0.985,-11.268 -10.917,-19.604 -22.185,-18.619 -11.268,0.985 -19.604,10.917 -18.619,22.185 l 58.245,666.44997 c 2.385,27.401 26.278,49.294 53.795,49.294 h 445.348 c 27.517,0 51.41,-21.893 53.796,-49.301 l 58.24397,-666.44297 c 0.985,-11.268 -7.351,-21.201 -18.619,-22.185 -11.268,-0.984 -21.201,7.351 -22.185,18.619 z m -384.78897,-149.606 v -103.782 c 0,-5.726 4.601,-10.342 10.24,-10.342 h 161.28 c 5.639,0 10.24,4.617 10.24,10.342 v 103.782 c 0,11.311 9.169,20.48 20.48,20.48 11.311,0 20.48,-9.169 20.48,-20.48 v -103.782 c 0,-28.316 -22.908,-51.302 -51.2,-51.302 h -161.28 c -28.292,0 -51.2,22.987 -51.2,51.302 v 103.782 c 0,11.311 9.169,20.48 20.48,20.48 11.311,0 20.48,-9.169 20.48,-20.48 z" />
	<path d="m 697.35993,612.17693 v 460.96397 c 0,11.311 9.169,20.48 20.48,20.48 11.311,0 20.48,-9.169 20.48,-20.48 V 612.17693 c 0,-11.311 -9.169,-20.48 -20.48,-20.48 -11.311,0 -20.48,9.169 -20.48,20.48 z m -192.435,1.767 39.936,460.96397 c 0.976,11.269 10.903,19.612 22.171,18.636 11.268,-0.976 19.612,-10.903 18.636,-22.171 l -39.936,-460.96397 c -0.976,-11.269 -10.903,-19.612 -22.171,-18.636 -11.268,0.976 -19.612,10.903 -18.636,22.171 z m 377.856,-3.535 -39.936,460.96397 c -0.976,11.269 7.367,21.195 18.636,22.171 11.269,0.976 21.195,-7.367 22.171,-18.636 l 39.936,-460.96397 c 0.976,-11.269 -7.367,-21.195 -18.636,-22.171 -11.269,-0.976 -21.195,7.367 -22.171,18.636 z" />
</svg>
